<svg xmlns="http://www.w3.org/2000/svg" xmlns:xlink="http://www.w3.org/1999/xlink" width="500" zoomAndPan="magnify" viewBox="0 0 375 374.999991" height="500" preserveAspectRatio="xMidYMid meet" version="1.0"><defs><g/><clipPath id="1803a2d23d"><path d="M 10 126.613281 L 108.605469 126.613281 L 108.605469 193 L 10 193 Z M 10 126.613281 " clip-rule="nonzero"/></clipPath><clipPath id="9c969a04ac"><path d="M 8.105469 178 L 107 178 L 107 218 L 8.105469 218 Z M 8.105469 178 " clip-rule="nonzero"/></clipPath><clipPath id="199b9e8e9a"><path d="M 59 218 L 76 218 L 76 241.363281 L 59 241.363281 Z M 59 218 " clip-rule="nonzero"/></clipPath><clipPath id="ce2070c95d"><path d="M 40 218 L 57 218 L 57 241.363281 L 40 241.363281 Z M 40 218 " clip-rule="nonzero"/></clipPath></defs><path fill="#0cc0df" d="M 82.335938 185.210938 C 82.335938 188.828125 79.40625 191.765625 75.785156 191.765625 C 72.164062 191.765625 69.230469 188.832031 69.230469 185.210938 C 69.230469 181.589844 72.164062 178.660156 75.785156 178.660156 C 79.40625 178.660156 82.335938 181.589844 82.335938 185.210938 Z M 82.335938 185.210938 " fill-opacity="1" fill-rule="nonzero"/><path fill="#0cc0df" d="M 40.558594 178.660156 C 44.171875 178.660156 47.109375 181.589844 47.109375 185.210938 C 47.109375 188.828125 44.179688 191.765625 40.558594 191.765625 C 36.933594 191.765625 34.003906 188.828125 34.003906 185.210938 C 34.003906 181.589844 36.933594 178.660156 40.558594 178.660156 Z M 40.558594 178.660156 " fill-opacity="1" fill-rule="nonzero"/><g clip-path="url(#1803a2d23d)"><path fill="#0cc0df" d="M 97.820312 192.191406 L 108.195312 192.191406 C 108.203125 191.960938 108.230469 191.738281 108.230469 191.511719 L 108.230469 178.902344 C 108.230469 164.382812 96.417969 152.570312 81.898438 152.570312 L 60.511719 152.570312 L 60.511719 141.285156 C 63.519531 140.289062 65.703125 137.496094 65.703125 134.15625 C 65.703125 129.992188 62.328125 126.617188 58.164062 126.617188 C 54 126.617188 50.621094 129.992188 50.621094 134.15625 C 50.621094 137.496094 52.808594 140.296875 55.816406 141.285156 L 55.816406 152.578125 L 34.4375 152.578125 C 23.464844 152.578125 14.046875 159.332031 10.09375 168.890625 L 22.042969 168.890625 C 24.96875 165.277344 29.433594 162.953125 34.4375 162.953125 L 81.902344 162.953125 C 90.699219 162.953125 97.851562 170.109375 97.851562 178.902344 L 97.851562 191.511719 C 97.851562 191.742188 97.824219 191.96875 97.820312 192.191406 Z M 57.519531 130.90625 C 57.519531 132.085938 56.566406 133.039062 55.386719 133.039062 C 54.210938 133.039062 53.257812 132.085938 53.257812 130.90625 C 53.257812 129.730469 54.210938 128.777344 55.386719 128.777344 C 56.566406 128.777344 57.519531 129.738281 57.519531 130.90625 Z M 57.519531 130.90625 " fill-opacity="1" fill-rule="nonzero"/></g><g clip-path="url(#9c969a04ac)"><path fill="#0cc0df" d="M 8.144531 178.226562 L 18.53125 178.226562 C 18.523438 178.457031 18.496094 178.679688 18.496094 178.902344 L 18.496094 191.511719 C 18.496094 200.308594 25.652344 207.460938 34.445312 207.460938 L 81.910156 207.460938 C 86.914062 207.460938 91.382812 205.140625 94.304688 201.527344 L 106.253906 201.527344 C 102.308594 211.089844 92.882812 217.839844 81.910156 217.839844 L 34.4375 217.839844 C 19.917969 217.839844 8.105469 206.027344 8.105469 191.507812 L 8.105469 178.902344 C 8.105469 178.671875 8.140625 178.449219 8.144531 178.226562 Z M 8.144531 178.226562 " fill-opacity="1" fill-rule="nonzero"/></g><g clip-path="url(#199b9e8e9a)"><path fill="#0cc0df" d="M 75.941406 221.582031 L 75.941406 238.332031 L 72.867188 241.019531 L 59.695312 232.671875 L 59.695312 227.234375 L 72.867188 218.890625 Z M 75.941406 221.582031 " fill-opacity="1" fill-rule="nonzero"/></g><g clip-path="url(#ce2070c95d)"><path fill="#0cc0df" d="M 56.648438 227.234375 L 56.648438 232.671875 L 43.472656 241.019531 L 40.402344 238.332031 L 40.402344 221.582031 L 43.472656 218.890625 Z M 56.648438 227.234375 " fill-opacity="1" fill-rule="nonzero"/></g><path fill="#0cc0df" d="M 57.085938 227.296875 L 59.253906 227.296875 L 59.253906 232.609375 L 57.085938 232.609375 Z M 57.085938 227.296875 " fill-opacity="1" fill-rule="nonzero"/><g fill="#0cc0df" fill-opacity="1"><g transform="translate(119.903597, 202.745453)"><g><path d="M 23.9375 -22.796875 L 23.9375 -18.234375 L 5.703125 -18.234375 L 5.703125 -13.6875 L 19.375 -13.6875 C 20.21875 -13.6875 20.984375 -13.476562 21.671875 -13.0625 C 22.367188 -12.65625 22.921875 -12.101562 23.328125 -11.40625 C 23.734375 -10.71875 23.9375 -9.957031 23.9375 -9.125 L 23.9375 -4.5625 C 23.9375 -3.726562 23.734375 -2.960938 23.328125 -2.265625 C 22.921875 -1.566406 22.367188 -1.015625 21.671875 -0.609375 C 20.984375 -0.203125 20.21875 0 19.375 0 L 1.140625 0 L 1.140625 -4.5625 L 19.375 -4.5625 L 19.375 -9.125 L 5.703125 -9.125 C 4.867188 -9.125 4.101562 -9.328125 3.40625 -9.734375 C 2.707031 -10.140625 2.15625 -10.6875 1.75 -11.375 C 1.34375 -12.070312 1.140625 -12.84375 1.140625 -13.6875 L 1.140625 -18.234375 C 1.140625 -19.078125 1.34375 -19.84375 1.75 -20.53125 C 2.15625 -21.226562 2.707031 -21.78125 3.40625 -22.1875 C 4.101562 -22.59375 4.867188 -22.796875 5.703125 -22.796875 Z M 23.9375 -22.796875 "/></g></g></g><g fill="#0cc0df" fill-opacity="1"><g transform="translate(145.843927, 202.745453)"><g><path d="M 5.703125 -22.796875 L 19.375 -22.796875 C 20.21875 -22.796875 20.984375 -22.59375 21.671875 -22.1875 C 22.367188 -21.78125 22.921875 -21.226562 23.328125 -20.53125 C 23.734375 -19.84375 23.9375 -19.078125 23.9375 -18.234375 L 23.9375 0 L 19.375 0 L 19.375 -18.234375 L 14.8125 -18.234375 L 14.8125 0 L 10.265625 0 L 10.265625 -18.234375 L 5.703125 -18.234375 L 5.703125 0 L 1.140625 0 L 1.140625 -18.234375 C 1.140625 -19.078125 1.34375 -19.84375 1.75 -20.53125 C 2.15625 -21.226562 2.707031 -21.78125 3.40625 -22.1875 C 4.101562 -22.59375 4.867188 -22.796875 5.703125 -22.796875 Z M 5.703125 -22.796875 "/></g></g></g><g fill="#0cc0df" fill-opacity="1"><g transform="translate(171.784257, 202.745453)"><g><path d="M 5.703125 -22.796875 L 19.375 -22.796875 C 20.21875 -22.796875 20.984375 -22.59375 21.671875 -22.1875 C 22.367188 -21.78125 22.921875 -21.226562 23.328125 -20.53125 C 23.734375 -19.84375 23.9375 -19.078125 23.9375 -18.234375 L 23.9375 0 L 19.375 0 L 19.375 -9.125 L 5.703125 -9.125 L 5.703125 0 L 1.140625 0 L 1.140625 -18.234375 C 1.140625 -19.078125 1.34375 -19.84375 1.75 -20.53125 C 2.15625 -21.226562 2.707031 -21.78125 3.40625 -22.1875 C 4.101562 -22.59375 4.867188 -22.796875 5.703125 -22.796875 Z M 5.703125 -18.234375 L 5.703125 -13.6875 L 19.375 -13.6875 L 19.375 -18.234375 Z M 5.703125 -18.234375 "/></g></g></g><g fill="#0cc0df" fill-opacity="1"><g transform="translate(197.724589, 202.745453)"><g><path d="M 23.9375 -18.234375 L 23.9375 -13.6875 C 23.9375 -12.84375 23.734375 -12.070312 23.328125 -11.375 C 22.921875 -10.6875 22.367188 -10.140625 21.671875 -9.734375 C 20.984375 -9.328125 20.21875 -9.125 19.375 -9.125 L 14.8125 -9.125 L 19.375 -4.5625 L 23.9375 -4.5625 L 23.9375 0 L 18.46875 0 C 17.820312 0 17.269531 -0.226562 16.8125 -0.6875 L 8.375 -9.125 L 5.703125 -9.125 L 5.703125 0 L 1.140625 0 L 1.140625 -22.796875 L 19.375 -22.796875 C 20.21875 -22.796875 20.984375 -22.59375 21.671875 -22.1875 C 22.367188 -21.78125 22.921875 -21.226562 23.328125 -20.53125 C 23.734375 -19.84375 23.9375 -19.078125 23.9375 -18.234375 Z M 19.375 -18.234375 L 5.703125 -18.234375 L 5.703125 -13.6875 L 19.375 -13.6875 Z M 19.375 -18.234375 "/></g></g></g><g fill="#0cc0df" fill-opacity="1"><g transform="translate(223.664917, 202.745453)"><g><path d="M 23.9375 -22.796875 L 23.9375 -18.234375 L 14.8125 -18.234375 L 14.8125 0 L 10.265625 0 L 10.265625 -18.234375 L 1.140625 -18.234375 L 1.140625 -22.796875 Z M 23.9375 -22.796875 "/></g></g></g><g fill="#0cc0df" fill-opacity="1"><g transform="translate(249.605245, 202.745453)"><g/></g></g><g fill="#0cc0df" fill-opacity="1"><g transform="translate(263.003084, 202.745453)"><g><path d="M 5.703125 -22.796875 L 19.375 -22.796875 C 20.21875 -22.796875 20.984375 -22.59375 21.671875 -22.1875 C 22.367188 -21.78125 22.921875 -21.226562 23.328125 -20.53125 C 23.734375 -19.84375 23.9375 -19.078125 23.9375 -18.234375 L 23.9375 0 L 19.375 0 L 19.375 -9.125 L 5.703125 -9.125 L 5.703125 0 L 1.140625 0 L 1.140625 -18.234375 C 1.140625 -19.078125 1.34375 -19.84375 1.75 -20.53125 C 2.15625 -21.226562 2.707031 -21.78125 3.40625 -22.1875 C 4.101562 -22.59375 4.867188 -22.796875 5.703125 -22.796875 Z M 5.703125 -18.234375 L 5.703125 -13.6875 L 19.375 -13.6875 L 19.375 -18.234375 Z M 5.703125 -18.234375 "/></g></g></g><g fill="#0cc0df" fill-opacity="1"><g transform="translate(288.94342, 202.745453)"><g><path d="M 19.375 0 L 1.140625 0 L 1.140625 -22.796875 L 19.375 -22.796875 C 20.21875 -22.796875 20.984375 -22.59375 21.671875 -22.1875 C 22.367188 -21.78125 22.921875 -21.226562 23.328125 -20.53125 C 23.734375 -19.84375 23.9375 -19.078125 23.9375 -18.234375 L 23.9375 -4.5625 C 23.9375 -3.726562 23.734375 -2.960938 23.328125 -2.265625 C 22.921875 -1.566406 22.367188 -1.015625 21.671875 -0.609375 C 20.984375 -0.203125 20.21875 0 19.375 0 Z M 5.703125 -18.234375 L 5.703125 -4.5625 L 19.375 -4.5625 L 19.375 -18.234375 Z M 5.703125 -18.234375 "/></g></g></g><g fill="#0cc0df" fill-opacity="1"><g transform="translate(314.883756, 202.745453)"><g><path d="M 5.703125 -22.796875 L 19.375 -22.796875 C 20.21875 -22.796875 20.984375 -22.59375 21.671875 -22.1875 C 22.367188 -21.78125 22.921875 -21.226562 23.328125 -20.53125 C 23.734375 -19.84375 23.9375 -19.078125 23.9375 -18.234375 L 23.9375 0 L 19.375 0 L 19.375 -9.125 L 5.703125 -9.125 L 5.703125 0 L 1.140625 0 L 1.140625 -18.234375 C 1.140625 -19.078125 1.34375 -19.84375 1.75 -20.53125 C 2.15625 -21.226562 2.707031 -21.78125 3.40625 -22.1875 C 4.101562 -22.59375 4.867188 -22.796875 5.703125 -22.796875 Z M 5.703125 -18.234375 L 5.703125 -13.6875 L 19.375 -13.6875 L 19.375 -18.234375 Z M 5.703125 -18.234375 "/></g></g></g><g fill="#0cc0df" fill-opacity="1"><g transform="translate(340.824091, 202.745453)"><g><path d="M 23.9375 -22.796875 L 23.9375 -18.234375 L 5.703125 -18.234375 L 5.703125 -13.6875 L 19.375 -13.6875 C 20.21875 -13.6875 20.984375 -13.476562 21.671875 -13.0625 C 22.367188 -12.65625 22.921875 -12.101562 23.328125 -11.40625 C 23.734375 -10.71875 23.9375 -9.957031 23.9375 -9.125 L 23.9375 -4.5625 C 23.9375 -3.726562 23.734375 -2.960938 23.328125 -2.265625 C 22.921875 -1.566406 22.367188 -1.015625 21.671875 -0.609375 C 20.984375 -0.203125 20.21875 0 19.375 0 L 1.140625 0 L 1.140625 -4.5625 L 19.375 -4.5625 L 19.375 -9.125 L 5.703125 -9.125 C 4.867188 -9.125 4.101562 -9.328125 3.40625 -9.734375 C 2.707031 -10.140625 2.15625 -10.6875 1.75 -11.375 C 1.34375 -12.070312 1.140625 -12.84375 1.140625 -13.6875 L 1.140625 -18.234375 C 1.140625 -19.078125 1.34375 -19.84375 1.75 -20.53125 C 2.15625 -21.226562 2.707031 -21.78125 3.40625 -22.1875 C 4.101562 -22.59375 4.867188 -22.796875 5.703125 -22.796875 Z M 23.9375 -22.796875 "/></g></g></g><g fill="#0cc0df" fill-opacity="1"><g transform="translate(366.765798, 202.745453)"><g/></g></g><g fill="#60fdfc" fill-opacity="1"><g transform="translate(163.548416, 220.95038)"><g><path d="M 7.4375 -9.265625 L 7.4375 -7.734375 L 4.75 -7.734375 L 4.75 0 L 2.921875 0 L 2.921875 -7.734375 L 0.25 -7.734375 L 0.25 -9.265625 Z M 7.4375 -9.265625 "/></g></g></g><g fill="#60fdfc" fill-opacity="1"><g transform="translate(180.261159, 220.95038)"><g><path d="M 3.03125 -4.0625 L 3.03125 -1.53125 L 7.46875 -1.53125 L 7.46875 0 L 1.203125 0 L 1.203125 -9.265625 L 7.359375 -9.265625 L 7.359375 -7.734375 L 3.03125 -7.734375 L 3.03125 -5.5625 L 6.8125 -5.5625 L 6.8125 -4.0625 Z M 3.03125 -4.0625 "/></g></g></g><g fill="#60fdfc" fill-opacity="1"><g transform="translate(197.259219, 220.95038)"><g><path d="M 5.0625 0.140625 C 4.207031 0.140625 3.453125 -0.0351562 2.796875 -0.390625 C 2.148438 -0.753906 1.644531 -1.289062 1.28125 -2 C 0.914062 -2.707031 0.734375 -3.585938 0.734375 -4.640625 C 0.734375 -5.679688 0.914062 -6.554688 1.28125 -7.265625 C 1.644531 -7.984375 2.148438 -8.519531 2.796875 -8.875 C 3.453125 -9.226562 4.207031 -9.40625 5.0625 -9.40625 C 5.957031 -9.40625 6.71875 -9.226562 7.34375 -8.875 C 7.96875 -8.53125 8.410156 -8 8.671875 -7.28125 L 7.328125 -6.46875 L 7.171875 -6.46875 C 6.972656 -6.957031 6.703125 -7.304688 6.359375 -7.515625 C 6.023438 -7.722656 5.59375 -7.828125 5.0625 -7.828125 C 4.289062 -7.828125 3.691406 -7.570312 3.265625 -7.0625 C 2.835938 -6.550781 2.625 -5.742188 2.625 -4.640625 C 2.625 -3.535156 2.835938 -2.726562 3.265625 -2.21875 C 3.691406 -1.707031 4.289062 -1.453125 5.0625 -1.453125 C 6.269531 -1.453125 7.007812 -2.035156 7.28125 -3.203125 L 7.4375 -3.203125 L 8.78125 -2.5 C 8.53125 -1.625 8.097656 -0.960938 7.484375 -0.515625 C 6.867188 -0.078125 6.0625 0.140625 5.0625 0.140625 Z M 5.0625 0.140625 "/></g></g></g><g fill="#60fdfc" fill-opacity="1"><g transform="translate(215.379489, 220.95038)"><g><path d="M 7.1875 -5.78125 L 7.1875 -9.265625 L 9.015625 -9.265625 L 9.015625 0 L 7.1875 0 L 7.1875 -4.21875 L 3.03125 -4.21875 L 3.03125 0 L 1.203125 0 L 1.203125 -9.265625 L 3.03125 -9.265625 L 3.03125 -5.78125 Z M 7.1875 -5.78125 "/></g></g></g><g fill="#60fdfc" fill-opacity="1"><g transform="translate(234.634664, 220.95038)"><g><path d="M 2.984375 0 L 1.203125 0 L 1.203125 -9.265625 L 3.296875 -9.265625 L 7.03125 -3.296875 L 7.1875 -3.328125 L 7.1875 -9.265625 L 8.953125 -9.265625 L 8.953125 0 L 7.078125 0 L 3.140625 -6.375 L 2.984375 -6.359375 Z M 2.984375 0 "/></g></g></g><g fill="#60fdfc" fill-opacity="1"><g transform="translate(253.826434, 220.95038)"><g><path d="M 5.046875 0.140625 C 4.203125 0.140625 3.453125 -0.03125 2.796875 -0.375 C 2.148438 -0.726562 1.644531 -1.257812 1.28125 -1.96875 C 0.914062 -2.6875 0.734375 -3.578125 0.734375 -4.640625 C 0.734375 -5.691406 0.914062 -6.570312 1.28125 -7.28125 C 1.644531 -8 2.148438 -8.53125 2.796875 -8.875 C 3.453125 -9.226562 4.203125 -9.40625 5.046875 -9.40625 C 5.898438 -9.40625 6.648438 -9.234375 7.296875 -8.890625 C 7.941406 -8.546875 8.445312 -8.015625 8.8125 -7.296875 C 9.175781 -6.578125 9.359375 -5.691406 9.359375 -4.640625 C 9.359375 -3.578125 9.175781 -2.6875 8.8125 -1.96875 C 8.445312 -1.257812 7.941406 -0.726562 7.296875 -0.375 C 6.648438 -0.03125 5.898438 0.140625 5.046875 0.140625 Z M 5.046875 -1.453125 C 5.835938 -1.453125 6.4375 -1.703125 6.84375 -2.203125 C 7.257812 -2.710938 7.46875 -3.523438 7.46875 -4.640625 C 7.46875 -5.742188 7.257812 -6.546875 6.84375 -7.046875 C 6.4375 -7.554688 5.835938 -7.8125 5.046875 -7.8125 C 4.265625 -7.8125 3.664062 -7.554688 3.25 -7.046875 C 2.832031 -6.546875 2.625 -5.742188 2.625 -4.640625 C 2.625 -3.523438 2.832031 -2.710938 3.25 -2.203125 C 3.664062 -1.703125 4.265625 -1.453125 5.046875 -1.453125 Z M 5.046875 -1.453125 "/></g></g></g><g fill="#60fdfc" fill-opacity="1"><g transform="translate(272.954802, 220.95038)"><g><path d="M 3.03125 -9.265625 L 3.03125 -1.53125 L 7.203125 -1.53125 L 7.203125 0 L 1.203125 0 L 1.203125 -9.265625 Z M 3.03125 -9.265625 "/></g></g></g><g fill="#60fdfc" fill-opacity="1"><g transform="translate(289.490015, 220.95038)"><g><path d="M 5.046875 0.140625 C 4.203125 0.140625 3.453125 -0.03125 2.796875 -0.375 C 2.148438 -0.726562 1.644531 -1.257812 1.28125 -1.96875 C 0.914062 -2.6875 0.734375 -3.578125 0.734375 -4.640625 C 0.734375 -5.691406 0.914062 -6.570312 1.28125 -7.28125 C 1.644531 -8 2.148438 -8.53125 2.796875 -8.875 C 3.453125 -9.226562 4.203125 -9.40625 5.046875 -9.40625 C 5.898438 -9.40625 6.648438 -9.234375 7.296875 -8.890625 C 7.941406 -8.546875 8.445312 -8.015625 8.8125 -7.296875 C 9.175781 -6.578125 9.359375 -5.691406 9.359375 -4.640625 C 9.359375 -3.578125 9.175781 -2.6875 8.8125 -1.96875 C 8.445312 -1.257812 7.941406 -0.726562 7.296875 -0.375 C 6.648438 -0.03125 5.898438 0.140625 5.046875 0.140625 Z M 5.046875 -1.453125 C 5.835938 -1.453125 6.4375 -1.703125 6.84375 -2.203125 C 7.257812 -2.710938 7.46875 -3.523438 7.46875 -4.640625 C 7.46875 -5.742188 7.257812 -6.546875 6.84375 -7.046875 C 6.4375 -7.554688 5.835938 -7.8125 5.046875 -7.8125 C 4.265625 -7.8125 3.664062 -7.554688 3.25 -7.046875 C 2.832031 -6.546875 2.625 -5.742188 2.625 -4.640625 C 2.625 -3.523438 2.832031 -2.710938 3.25 -2.203125 C 3.664062 -1.703125 4.265625 -1.453125 5.046875 -1.453125 Z M 5.046875 -1.453125 "/></g></g></g><g fill="#60fdfc" fill-opacity="1"><g transform="translate(308.618383, 220.95038)"><g><path d="M 4.5 0.140625 C 3.726562 0.140625 3.054688 -0.0351562 2.484375 -0.390625 C 1.921875 -0.742188 1.488281 -1.273438 1.1875 -1.984375 C 0.882812 -2.703125 0.734375 -3.585938 0.734375 -4.640625 C 0.734375 -5.691406 0.914062 -6.570312 1.28125 -7.28125 C 1.644531 -8 2.15625 -8.53125 2.8125 -8.875 C 3.46875 -9.226562 4.222656 -9.40625 5.078125 -9.40625 C 5.972656 -9.40625 6.734375 -9.238281 7.359375 -8.90625 C 7.984375 -8.570312 8.421875 -8.082031 8.671875 -7.4375 L 7.328125 -6.625 L 7.171875 -6.625 C 6.984375 -7.039062 6.71875 -7.34375 6.375 -7.53125 C 6.03125 -7.726562 5.597656 -7.828125 5.078125 -7.828125 C 4.285156 -7.828125 3.675781 -7.570312 3.25 -7.0625 C 2.832031 -6.5625 2.625 -5.753906 2.625 -4.640625 C 2.625 -3.515625 2.816406 -2.695312 3.203125 -2.1875 C 3.597656 -1.6875 4.1875 -1.4375 4.96875 -1.4375 C 5.632812 -1.4375 6.125 -1.582031 6.4375 -1.875 C 6.757812 -2.175781 6.921875 -2.628906 6.921875 -3.234375 L 6.921875 -3.625 L 4.71875 -3.625 L 4.71875 -5.109375 L 8.734375 -5.109375 L 8.734375 0 L 6.984375 0 L 6.984375 -1.25 L 6.859375 -1.265625 C 6.660156 -0.816406 6.367188 -0.46875 5.984375 -0.21875 C 5.597656 0.0195312 5.101562 0.140625 4.5 0.140625 Z M 4.5 0.140625 "/></g></g></g><g fill="#60fdfc" fill-opacity="1"><g transform="translate(327.315616, 220.95038)"><g><path d="M 5.078125 0 L 3.25 0 L 3.25 -3.640625 L 0.046875 -9.265625 L 2.015625 -9.265625 L 4.125 -5.625 L 4.28125 -5.625 L 6.359375 -9.265625 L 8.28125 -9.265625 L 5.078125 -3.640625 Z M 5.078125 0 "/></g></g></g></svg>